<svg viewBox="0 0 407 431" fill="none" xmlns="http://www.w3.org/2000/svg">
<path fill-rule="evenodd" clip-rule="evenodd" d="M215.144 9.78261C212.751 -3.2609 194.249 -3.26086 191.856 9.78265L176.024 96.0555C174.312 105.386 163.043 109.085 156.229 102.553L93.2228 42.1572C83.697 33.026 68.7294 44.0115 74.3824 55.9852L111.773 135.182C115.816 143.747 108.852 153.431 99.5382 152.192L13.4237 140.743C0.404148 139.012 -5.31294 156.787 6.22734 163.117L82.5574 204.987C90.8125 209.515 90.8125 221.485 82.5574 226.013L6.2273 267.883C-5.31298 274.213 0.404192 291.988 13.4238 290.257L99.5382 278.808C108.852 277.569 115.816 287.253 111.773 295.818L74.3824 375.015C68.7294 386.989 83.697 397.974 93.2228 388.843L156.229 328.447C163.043 321.915 174.312 325.614 176.024 334.945L191.856 421.217C194.25 434.261 212.751 434.261 215.144 421.217L230.976 334.945C232.688 325.614 243.957 321.915 250.771 328.447L313.777 388.843C323.303 397.974 338.271 386.988 332.618 375.015L295.227 295.818C291.184 287.253 298.148 277.569 307.462 278.808L393.576 290.257C406.596 291.988 412.313 274.213 400.773 267.883L324.443 226.013C316.187 221.485 316.187 209.515 324.443 204.987L400.773 163.117C412.313 156.787 406.596 139.012 393.576 140.743L307.462 152.192C298.148 153.431 291.184 143.747 295.227 135.182L332.618 55.9851C338.271 44.0115 323.303 33.026 313.777 42.1572L250.771 102.553C243.957 109.085 232.688 105.386 230.976 96.0554L215.144 9.78261ZM212.945 162.251C211.352 152.89 198.046 152.89 196.452 162.251C195.295 169.05 186.994 171.657 182.22 166.724C175.697 159.984 164.786 167.434 168.562 176.054L169.445 178.07C172.231 184.43 166.996 191.403 160.18 190.426C150.629 189.057 146.139 201.967 154.465 206.89L155.655 207.593C161.638 211.131 161.638 219.869 155.655 223.407L154.465 224.11C146.139 229.033 150.629 241.943 160.18 240.574C166.996 239.598 172.231 246.57 169.445 252.93L168.562 254.946C164.786 263.566 175.697 271.016 182.22 264.276C186.994 259.343 195.295 261.951 196.452 268.75C198.046 278.11 211.352 278.11 212.945 268.75C214.103 261.951 222.403 259.343 227.178 264.276C233.701 271.016 244.611 263.566 240.835 254.946L239.952 252.93C237.167 246.57 242.401 239.598 249.217 240.574C258.769 241.943 263.258 229.033 254.933 224.11L253.743 223.407C247.759 219.869 247.759 211.131 253.743 207.593L254.933 206.89C263.258 201.967 258.769 189.057 249.217 190.426C242.401 191.403 237.167 184.43 239.952 178.07L240.835 176.054C244.611 167.434 233.701 159.984 227.178 166.724C222.403 171.657 214.103 169.05 212.945 162.251Z" fill="#D98000"/>
</svg>
